<svg width="131" height="57" viewBox="0 0 131 57" fill="none" xmlns="http://www.w3.org/2000/svg">
<path d="M36.2416 23.696H48.0496V27.296H31.7296V16.952H48.0496V20.552H36.2416V23.696ZM42.3856 30.68H48.5296V34.28H31.2496V30.68H37.8736V28.016H42.3856V30.68ZM68.2058 25.064V28.232H51.8858V17H68.2058V20.168H56.3978V21.032H67.9658V24.2H56.3978V25.064H68.2058ZM62.3018 30.872H68.6858V34.28H51.4058V30.872H57.7898V28.952H62.3018V30.872ZM88.3621 16.76V35H83.8501V16.76H88.3621ZM81.7621 17V27.32H76.0741V30.68H82.2421V34.28H71.5621V23.72H77.2741V20.6H71.5621V17H81.7621ZM108.122 16.76V23.936H109.922V27.536H108.122V35H103.61V16.76H108.122ZM101.978 16.952V34.28H91.2496V16.952H101.978ZM97.4656 20.552H95.7616V30.68H97.4656V20.552ZM118.199 21.8C117.959 23.224 117.495 24.456 116.807 25.496C116.119 26.52 115.295 27.304 114.335 27.848C113.391 28.376 112.399 28.64 111.359 28.64L110.879 25.76C111.423 25.76 111.911 25.592 112.343 25.256C112.791 24.904 113.175 24.424 113.495 23.816L111.359 23.72V21.32H114.263C114.327 20.888 114.359 20.408 114.359 19.88H111.359V17H118.367V19.712V20.12H119.375V16.76H123.647V27.056H119.375V23.72H118.199V21.8ZM128.639 16.76V27.776H124.367V16.76H128.639ZM128.399 35C126.735 35 125.223 34.792 123.863 34.376C122.519 33.944 121.391 33.328 120.479 32.528C119.567 33.328 118.431 33.944 117.071 34.376C115.727 34.792 114.223 35 112.559 35L112.079 31.4C113.839 31.4 115.279 31.104 116.399 30.512C117.519 29.904 118.127 28.992 118.223 27.776H122.735C122.831 28.992 123.439 29.904 124.559 30.512C125.679 31.104 127.119 31.4 128.879 31.4L128.399 35Z" fill="#D7965C"/>
<path d="M11.3095 13C5.06375 13 0 18.071 0 24.4731C0 33.3188 11.342 38.0127 11.3095 38C11.2786 38.0127 22.619 33.3188 22.619 24.4731C22.619 18.0757 17.5553 13 11.3095 13ZM11.3095 29.1178C10.4626 29.1172 9.63487 28.8594 8.93098 28.3769C8.22713 27.8945 7.67872 27.2091 7.35511 26.4075C7.0315 25.6058 6.94721 24.7239 7.11294 23.8731C7.27867 23.0224 7.68692 22.2412 8.28609 21.6281C8.88529 21.015 9.64849 20.5977 10.4792 20.4289C11.31 20.2601 12.1709 20.3473 12.9532 20.6797C13.7355 21.012 14.4041 21.5745 14.8743 22.2959C15.3446 23.0174 15.5954 23.8655 15.5951 24.733C15.5961 25.3099 15.486 25.8813 15.271 26.4145C15.056 26.9477 14.7404 27.4323 14.3423 27.8404C13.9442 28.2484 13.4714 28.572 12.951 28.7926C12.4305 29.0132 11.8727 29.1264 11.3095 29.1258V29.1178Z" fill="#D7965C"/>
<path fill-rule="evenodd" clip-rule="evenodd" d="M4.63213e-05 24.5047V24.4389C0.0180694 18.0529 5.07489 13 11.3095 13C17.5553 13 22.6191 18.0757 22.619 24.4731C22.619 24.6181 22.616 24.762 22.61 24.9048H15.5921C15.5942 24.8476 15.5952 24.7903 15.5951 24.733C15.5954 23.8655 15.3446 23.0174 14.8743 22.2959C14.4041 21.5745 13.7355 21.012 12.9532 20.6797C12.1709 20.3473 11.31 20.2601 10.4792 20.4289C9.64849 20.5977 8.88529 21.015 8.28609 21.6281C7.68692 22.2412 7.27867 23.0224 7.11294 23.8731C7.04646 24.2144 7.02021 24.5607 7.0335 24.9048H0.00904093C0.00348171 24.7724 0.000456912 24.639 4.63213e-05 24.5047Z" fill="#A86202"/>
<path d="M12.4042 16.0859C12.0434 16.8497 10.9566 16.8497 10.5958 16.0859L8.27703 11.1771C7.96367 10.5138 8.44757 9.75 9.18122 9.75L13.8188 9.75C14.5524 9.75 15.0363 10.5138 14.723 11.1771L12.4042 16.0859Z" fill="#A86202"/>
</svg>
